HIERARCHY
ROOT Hips
{
	OFFSET 29.690704 76.510812 -6.147423
	CHANNELS 6 Xposition Yposition Zposition Zrotation Yrotation Xrotation 
	JOINT Chest
	{
		OFFSET 0.000006 7.402001 -0.000093
		CHANNELS 3 Zrotation Yrotation Xrotation
		JOINT Chest2
		{
			OFFSET 0.000008 22.273381 0.000121
			CHANNELS 3 Zrotation Yrotation Xrotation
			JOINT Neck
			{
				OFFSET 0.000004 24.176909 -0.000016
				CHANNELS 3 Zrotation Yrotation Xrotation
				JOINT Head
				{
					OFFSET -0.000000 14.085861 1.804137
					CHANNELS 3 Zrotation Yrotation Xrotation
					End Site
					{
						OFFSET 0.000000 0.000000 0.000000
					}
				}
			}
			JOINT LeftCollar
			{
				OFFSET 3.597557 18.018781 -0.346329
				CHANNELS 3 Zrotation Yrotation Xrotation
				JOINT LeftShoulder
				{
					OFFSET 10.189858 -0.000018 -0.000029
					CHANNELS 3 Zrotation Yrotation Xrotation
					JOINT LeftElbow
					{
						OFFSET 26.401578 0.000017 -0.000018
						CHANNELS 3 Zrotation Yrotation Xrotation
						JOINT LeftWrist
						{
							OFFSET 23.922799 -0.000060 -0.000023
							CHANNELS 3 Zrotation Yrotation Xrotation
							JOINT LeftFinger0
							{
								OFFSET 1.909220 -2.169561 3.037486
								CHANNELS 3 Zrotation Yrotation Xrotation
								JOINT LeftFinger01
								{
									OFFSET 2.883510 -0.000013 -0.000037
									CHANNELS 3 Zrotation Yrotation Xrotation
									JOINT LeftFinger02
									{
										OFFSET 2.464499 0.000004 0.000013
										CHANNELS 3 Zrotation Yrotation Xrotation
										End Site
										{
											OFFSET 0.000000 0.000000 0.000000
										}
									}
								}
							}
							JOINT LeftFinger1
							{
								OFFSET 7.810657 0.000014 3.037388
								CHANNELS 3 Zrotation Yrotation Xrotation
								JOINT LeftFinger11
								{
									OFFSET 4.339349 0.000004 -0.000040
									CHANNELS 3 Zrotation Yrotation Xrotation
									JOINT LeftFinger12
									{
										OFFSET 2.169645 -0.000014 0.000017
										CHANNELS 3 Zrotation Yrotation Xrotation
										End Site
										{
											OFFSET 0.000000 0.000000 0.000000
										}
									}
								}
							}
							JOINT LeftFinger2
							{
								OFFSET 7.810723 0.000015 1.006689
								CHANNELS 3 Zrotation Yrotation Xrotation
								JOINT LeftFinger21
								{
									OFFSET 4.773119 -0.000002 0.000011
									CHANNELS 3 Zrotation Yrotation Xrotation
									JOINT LeftFinger22
									{
										OFFSET 2.603506 0.000017 0.000011
										CHANNELS 3 Zrotation Yrotation Xrotation
										End Site
										{
											OFFSET 0.000000 0.000000 0.000000
										}
									}
								}
							}
							JOINT LeftFinger3
							{
								OFFSET 7.376403 0.000008 -1.006684
								CHANNELS 3 Zrotation Yrotation Xrotation
								JOINT LeftFinger31
								{
									OFFSET 4.339252 -0.000035 -0.000018
									CHANNELS 3 Zrotation Yrotation Xrotation
									JOINT LeftFinger32
									{
										OFFSET 2.169592 -0.000027 -0.000015
										CHANNELS 3 Zrotation Yrotation Xrotation
										End Site
										{
											OFFSET 0.000000 0.000000 0.000000
										}
									}
								}
							}
							JOINT LeftFinger4
							{
								OFFSET 6.942725 0.000019 -3.037615
								CHANNELS 3 Zrotation Yrotation Xrotation
								JOINT LeftFinger41
								{
									OFFSET 3.471258 0.000009 0.000006
									CHANNELS 3 Zrotation Yrotation Xrotation
									JOINT LeftFinger42
									{
										OFFSET 1.735741 -0.000024 -0.000003
										CHANNELS 3 Zrotation Yrotation Xrotation
										End Site
										{
											OFFSET 0.000000 0.000000 0.000000
										}
									}
								}
							}
						}
					}
				}
			}
			JOINT RightCollar
			{
				OFFSET -3.597667 18.017974 -0.347222
				CHANNELS 3 Zrotation Yrotation Xrotation
				JOINT RightShoulder
				{
					OFFSET -10.188833 -0.000021 -0.000004
					CHANNELS 3 Zrotation Yrotation Xrotation
					JOINT RightElbow
					{
						OFFSET -26.401945 0.000113 0.000043
						CHANNELS 3 Zrotation Yrotation Xrotation
						JOINT RightWrist
						{
							OFFSET -23.914847 0.000003 0.000023
							CHANNELS 3 Zrotation Yrotation Xrotation
							JOINT RightFinger0
							{
								OFFSET -1.909223 -2.169478 3.037503
								CHANNELS 3 Zrotation Yrotation Xrotation
								JOINT RightFinger01
								{
									OFFSET -2.883686 -0.000029 0.000007
									CHANNELS 3 Zrotation Yrotation Xrotation
									JOINT RightFinger02
									{
										OFFSET -2.464820 0.000030 0.000045
										CHANNELS 3 Zrotation Yrotation Xrotation
										End Site
										{
											OFFSET 0.000000 0.000000 0.000000
										}
									}
								}
							}
							JOINT RightFinger1
							{
								OFFSET -7.810631 -0.000011 3.037534
								CHANNELS 3 Zrotation Yrotation Xrotation
								JOINT RightFinger11
								{
									OFFSET -4.339075 0.000025 -0.000062
									CHANNELS 3 Zrotation Yrotation Xrotation
									JOINT RightFinger12
									{
										OFFSET -2.169660 -0.000018 0.000011
										CHANNELS 3 Zrotation Yrotation Xrotation
										End Site
										{
											OFFSET 0.000000 0.000000 0.000000
										}
									}
								}
							}
							JOINT RightFinger2
							{
								OFFSET -7.810642 0.000012 1.006708
								CHANNELS 3 Zrotation Yrotation Xrotation
								JOINT RightFinger21
								{
									OFFSET -4.773293 0.000041 0.000037
									CHANNELS 3 Zrotation Yrotation Xrotation
									JOINT RightFinger22
									{
										OFFSET -2.603592 0.000073 0.000022
										CHANNELS 3 Zrotation Yrotation Xrotation
										End Site
										{
											OFFSET 0.000000 0.000000 0.000000
										}
									}
								}
							}
							JOINT RightFinger3
							{
								OFFSET -7.376344 0.000018 -1.006697
								CHANNELS 3 Zrotation Yrotation Xrotation
								JOINT RightFinger31
								{
									OFFSET -4.339351 0.000024 0.000007
									CHANNELS 3 Zrotation Yrotation Xrotation
									JOINT RightFinger32
									{
										OFFSET -2.169627 -0.000001 -0.000013
										CHANNELS 3 Zrotation Yrotation Xrotation
										End Site
										{
											OFFSET 0.000000 0.000000 0.000000
										}
									}
								}
							}
							JOINT RightFinger4
							{
								OFFSET -6.942773 0.000038 -3.037564
								CHANNELS 3 Zrotation Yrotation Xrotation
								JOINT RightFinger41
								{
									OFFSET -3.471416 0.000043 -0.000017
									CHANNELS 3 Zrotation Yrotation Xrotation
									JOINT RightFinger42
									{
										OFFSET -1.735663 0.000031 -0.000003
										CHANNELS 3 Zrotation Yrotation Xrotation
										End Site
										{
											OFFSET 0.000000 0.000000 0.000000
										}
									}
								}
							}
						}
					}
				}
			}
		}
	}
	JOINT LeftHip
	{
		OFFSET 9.019092 0.000083 0.000006
		CHANNELS 3 Zrotation Yrotation Xrotation
		JOINT LeftKnee
		{
			OFFSET 0.000017 -35.287113 -0.000061
			CHANNELS 3 Zrotation Yrotation Xrotation
			JOINT LeftAnkle
			{
				OFFSET 0.000006 -35.916589 -0.000049
				CHANNELS 3 Zrotation Yrotation Xrotation
				JOINT LeftToe
				{
					OFFSET 0.000008 -5.863872 13.528890
					CHANNELS 3 Zrotation Yrotation Xrotation
					End Site
					{
						OFFSET 0.000000 0.000000 0.000000
					}
				}
			}
		}
	}
	JOINT RightHip
	{
		OFFSET -9.019786 0.000017 -0.000062
		CHANNELS 3 Zrotation Yrotation Xrotation
		JOINT RightKnee
		{
			OFFSET -0.000002 -35.286823 0.000038
			CHANNELS 3 Zrotation Yrotation Xrotation
			JOINT RightAnkle
			{
				OFFSET -0.000058 -35.913256 0.000039
				CHANNELS 3 Zrotation Yrotation Xrotation
				JOINT RightToe
				{
					OFFSET 0.000041 -5.863200 13.529222
					CHANNELS 3 Zrotation Yrotation Xrotation
					End Site
					{
						OFFSET 0.000000 0.000000 0.000000
					}
				}
			}
		}
	}
}
MOTION
Frames: 6
Frame Time: 0.050000
32.945192 79.425869 -1.766158 -0.979523 11.933652 -2.753253 -0.001393 -0.858726 -13.159255 -0.046642 -0.964080 13.392270 1.487284 0.427304 14.599158 -3.595413 0.856194 -2.492600 -0.096141 -6.350026 5.073252 -75.492149 -9.181949 31.670124 -0.001089 -15.513898 -28.735765 -11.952415 16.591639 -6.230034 -27.281561 -39.308479 59.048313 -20.189699 18.982952 -3.421910 -21.196507 19.930332 41.308880 -20.160400 -7.862075 17.217585 -38.288216 -13.145744 7.140938 -31.472664 -12.014255 6.075535 -5.602652 -10.117126 -2.742676 -38.966415 -1.612581 2.269875 -28.889469 -1.990292 2.364409 -12.916886 -9.152578 -2.832787 -27.931601 -0.149072 -0.682297 -20.025301 0.097546 -0.738019 -5.792297 -5.068878 -21.752522 -21.098545 7.557191 -4.688813 -13.142118 5.626060 -3.989237 7.496967 0.989032 4.615639 65.823578 12.188469 33.622196 0.002091 13.181329 -23.857635 9.552959 -17.213694 -2.871217 24.247082 42.628880 48.834007 18.646765 -17.703772 -2.910249 18.395872 -17.446352 42.194527 51.478439 1.458198 19.343269 30.756514 10.649704 4.631784 12.278982 5.542706 2.134615 35.521374 1.839430 0.653406 33.976120 0.647593 0.681875 21.830242 0.607144 0.603627 39.138138 3.420391 0.399134 36.140518 0.308836 -0.035190 23.131052 0.151780 -0.104964 25.086597 1.799123 -15.363805 28.733355 -8.255914 -1.521033 18.230413 -5.228698 -0.187571 1.197788 -1.792373 -1.177245 -0.000439 0.000524 11.751718 -1.652316 -3.809647 -9.951307 -0.001564 0.000862 -0.032179 1.584725 -7.092818 2.632782 -0.002066 -0.002790 11.061297 1.715423 -5.630869 -12.839002 -0.000491 -0.000757 0.328822 
32.951144 79.430836 -1.846049 -0.984080 11.888741 -2.801523 -0.001481 -0.867427 -13.143946 -0.245948 -0.969798 13.404742 1.660916 0.358707 14.644253 -3.369552 0.839798 -2.500890 -0.053472 -6.372629 5.068560 -74.749275 -9.171739 31.544195 -0.000994 -15.482996 -28.835842 -13.552666 16.462799 -6.723781 -27.284100 -39.307480 59.065411 -20.197182 18.987488 -3.423305 -21.212057 19.942116 41.304188 -19.824385 -7.733837 17.172720 -38.302734 -13.150909 7.145468 -32.078182 -11.946443 6.203563 -5.552566 -10.121771 -2.743991 -38.919590 -1.610763 2.267931 -28.853992 -1.987478 2.363686 -12.753742 -9.043258 -2.854635 -27.950972 -0.151096 -0.677759 -20.915619 0.094263 -0.735329 -5.785988 -5.058334 -21.742559 -21.070953 7.546768 -4.682302 -13.127469 5.617022 -3.984022 7.496330 0.991634 4.634073 65.822540 12.173414 33.626648 0.001889 13.124730 -23.780514 9.534331 -17.258373 -2.866572 24.231241 42.629097 48.831085 18.642748 -17.700964 -2.908538 18.388124 -17.438902 42.196831 51.455116 1.448400 19.339312 30.793831 10.658813 4.636262 12.294225 5.546885 2.133760 35.483402 1.835716 0.654941 33.976292 0.647663 0.682476 21.832495 0.607661 0.604218 39.091904 3.416207 0.402366 36.120110 0.310054 -0.031750 23.116230 0.153951 -0.101817 25.040726 1.794630 -15.361909 28.675642 -8.241919 -1.510686 18.191553 -5.220316 -0.181494 1.174955 -1.846933 -1.206226 -0.000403 0.000621 11.750457 -1.618531 -3.870147 -9.934463 -0.001625 0.001107 -0.031551 1.581426 -7.122343 2.621659 -0.002186 -0.002772 11.107090 1.745594 -5.757183 -12.860759 -0.000554 -0.000806 0.336451 
32.954037 79.436004 -1.922851 -0.988316 11.842934 -2.844522 -0.001544 -0.868763 -13.129585 -0.395634 -0.967007 13.404218 1.834003 0.293099 14.630919 -3.155669 0.830819 -2.489128 -0.013838 -6.393349 5.052007 -73.847717 -9.139493 31.401628 -0.000937 -15.451330 -28.913221 -14.667859 16.364244 -7.083018 -27.287365 -39.311707 59.077438 -20.206310 18.993876 -3.425000 -21.232267 19.956964 41.297966 -19.420578 -7.583455 17.121941 -38.314827 -13.156138 7.149148 -32.508633 -11.898769 6.293641 -5.511421 -10.125917 -2.743737 -38.854244 -1.608370 2.265636 -28.799320 -1.983480 2.362435 -12.568987 -8.909405 -2.876303 -27.962944 -0.153821 -0.671175 -21.543497 0.090211 -0.729876 -5.792379 -5.046751 -21.731039 -21.041599 7.534347 -4.675941 -13.108974 5.606398 -3.977945 7.480859 0.992683 4.642292 65.843933 12.150738 33.659149 0.001604 13.074968 -23.693588 9.531723 -17.310673 -2.864513 24.211802 42.632912 48.826138 18.641994 -17.700788 -2.908212 18.387049 -17.437290 42.197220 51.432728 1.440706 19.333868 30.838242 10.670256 4.641579 12.316177 5.553164 2.132978 35.443050 1.830236 0.656413 33.968590 0.647749 0.683372 21.831320 0.608283 0.605081 39.050301 3.412408 0.405412 36.101318 0.311005 -0.028588 23.103622 0.155751 -0.098928 24.998728 1.785286 -15.358742 28.619434 -8.228262 -1.500746 18.154974 -5.211965 -0.175889 1.158118 -1.896400 -1.246321 -0.000418 0.000693 11.736457 -1.589303 -3.927300 -9.914400 -0.001628 0.001235 -0.032232 1.581817 -7.145831 2.600997 -0.002206 -0.002745 11.130360 1.777577 -5.872081 -12.874268 -0.000655 -0.000792 0.343831 
32.959085 79.440661 -1.992326 -0.994103 11.802889 -2.885332 -0.001592 -0.860697 -13.117341 -0.495755 -0.954168 13.395064 1.997593 0.228194 14.591877 -2.940310 0.818964 -2.465947 0.030693 -6.413019 5.025098 -73.655403 -9.119367 31.363268 -0.000945 -15.422713 -28.988312 -15.284895 16.295622 -7.298769 -27.280701 -39.323021 59.080887 -20.214657 19.000395 -3.426606 -21.252337 19.971222 41.291515 -19.317253 -7.542325 17.110252 -38.330547 -13.162019 7.154009 -32.771282 -11.872975 6.349916 -5.482142 -10.130741 -2.743736 -38.794865 -1.606176 2.263525 -28.755186 -1.980207 2.361603 -12.534801 -8.870801 -2.875847 -27.974285 -0.156437 -0.665203 -21.920433 0.086575 -0.724544 -5.803436 -5.032701 -21.717981 -21.001850 7.518786 -4.668509 -13.083880 5.594100 -3.971573 7.457728 0.996072 4.640109 65.867302 12.124965 33.711807 0.001271 13.046632 -23.601599 9.510227 -17.359011 -2.853534 24.193169 42.641174 48.818752 18.642765 -17.701496 -2.908076 18.391258 -17.440012 42.195961 51.406513 1.432016 19.329977 30.874908 10.680380 4.646568 12.336080 5.561026 2.133858 35.402851 1.823550 0.656990 33.957352 0.646963 0.682211 21.823250 0.607656 0.603880 39.021645 3.407936 0.408637 36.072266 0.311504 -0.026444 23.085623 0.156986 -0.096917 24.958952 1.777192 -15.356193 28.574944 -8.217621 -1.492802 18.126781 -5.205435 -0.171430 1.151955 -1.944682 -1.292799 -0.000493 0.000744 11.720647 -1.566629 -3.980211 -9.897070 -0.001562 0.001243 -0.033348 1.585806 -7.171335 2.574876 -0.002160 -0.002712 11.133908 1.807904 -5.969902 -12.876719 -0.000762 -0.000705 0.351228 
32.966233 79.444539 -2.054582 -1.002890 11.773108 -2.924790 -0.001627 -0.850076 -13.105135 -0.544969 -0.938280 13.375481 2.145650 0.166377 14.516438 -2.709542 0.489256 -2.431751 0.070441 -6.419593 4.996516 -73.759697 -9.106265 31.362080 -0.001028 -15.388338 -29.068996 -15.449458 16.259483 -7.384539 -27.267021 -39.333778 59.079098 -20.221209 18.773371 -3.427925 -21.271553 19.983744 41.285179 -19.338156 -7.548596 17.113998 -38.350697 -13.168250 7.159679 -32.872147 -11.868650 6.372962 -5.452939 -10.135232 -2.746487 -38.751198 -1.643710 2.260692 -28.723877 -1.976144 2.359473 -12.560172 -8.877281 -2.868354 -27.989187 -0.159127 -0.659807 -22.056746 0.083706 -0.719278 -5.810437 -5.021772 -21.710844 -20.973837 7.202342 -4.662828 -13.066671 5.585161 -3.967080 7.428784 0.993046 4.628006 65.896446 12.095259 33.774883 0.000924 13.046753 -23.491669 9.467673 -17.413387 -2.833500 24.183947 42.643543 48.819157 18.646160 -17.704609 -2.908453 18.392889 -17.441895 42.195175 51.391735 1.424952 19.325300 30.917044 10.691195 4.650158 12.355100 5.566812 2.132620 35.374287 1.818353 0.657299 33.948864 0.645446 0.679479 21.814981 0.606214 0.601100 38.992867 3.401172 0.412592 36.044289 0.311745 -0.024924 23.067904 0.158105 -0.095544 24.936209 1.768962 -15.352581 28.548275 -8.211316 -1.487477 18.110924 -5.201560 -0.168750 1.156009 -1.985328 -1.345641 -0.000605 0.000765 11.705128 -1.551350 -4.026177 -9.883198 -0.001454 0.001127 -0.035524 1.596323 -7.190285 2.543985 -0.002087 -0.002691 11.125731 1.834107 -6.055561 -12.874924 -0.000851 -0.000553 0.358450 
32.981761 79.447414 -2.114711 -1.013183 11.757796 -2.960694 -0.001656 -0.840167 -13.089481 -0.541208 -0.922947 13.348998 2.284466 0.122681 14.389821 -2.476002 0.442134 -2.385333 0.117810 -6.421064 4.962498 -74.229126 -9.073339 31.376221 -0.001163 -15.350793 -29.158106 -15.153119 16.251781 -7.337997 -27.251150 -39.349678 59.080101 -20.227982 18.741226 -3.429431 -21.291681 19.996950 41.278595 -19.508917 -7.606758 17.137178 -38.377666 -13.176775 7.166501 -32.814049 -11.887547 6.362379 -5.427245 -10.138774 -2.749246 -38.713299 -1.648100 2.258245 -28.698236 -1.972121 2.357853 -12.650778 -8.933343 -2.849777 -28.009569 -0.162290 -0.652551 -21.953377 0.080241 -0.711577 -5.816009 -5.013500 -21.704329 -20.950857 7.143439 -4.656708 -13.051563 5.577723 -3.962569 7.402233 0.989772 4.606662 65.917473 12.091549 33.849522 0.000556 13.078434 -23.364758 9.418880 -17.437801 -2.805238 24.175331 42.648586 48.823551 18.651554 -17.709557 -2.909564 18.398045 -17.446434 42.193493 51.365807 1.416177 19.320501 30.973021 10.706288 4.656620 12.387543 5.577860 2.132804 35.344494 1.812185 0.657390 33.944195 0.644061 0.676914 21.809299 0.604755 0.598426 38.971912 3.396341 0.416302 36.023624 0.312002 -0.023287 23.055408 0.159011 -0.093971 24.921240 1.760868 -15.347257 28.515491 -8.202649 -1.479566 18.091562 -5.195573 -0.163777 1.173203 -2.019204 -1.406943 -0.000714 0.000767 11.692023 -1.543805 -4.058088 -9.870064 -0.001329 0.000901 -0.038599 1.615352 -7.188513 2.499701 -0.002001 -0.002688 11.116675 1.853910 -6.121485 -12.866162 -0.000913 -0.000370 0.363080 
